<svg height="auto" viewBox="0 0 2000 1000" xmlns="http://www.w3.org/2000/svg"><path d="M0 998.644c5.2-1.222 15.6-3.55 26-6.112 10.4-2.56 15.6-.972 26-6.693s15.6-15.29 26-21.912c10.4-6.623 15.6-9.939 26-11.2 10.4-1.263 15.6 9.777 26 4.89s15.6-25.91 26-29.327c10.4-3.415 15.6 8.686 26 12.248 10.4 3.561 15.6 12.38 26 5.562 10.4-6.817 15.6-30.815 26-39.65 10.4-8.834 15.6-7.788 26-4.52 10.4 3.266 15.6 23.4 26 20.855 10.4-2.544 15.6-23.723 26-33.576 10.4-9.853 15.6-9.189 26-15.688 10.4-6.5 15.6-3.445 26-16.808 10.4-13.362 15.6-40.589 26-50.005 10.4-9.416 15.6 2.429 26 2.925s15.6-4.025 26-.444c10.4 3.58 15.6 18.97 26 18.35 10.4-.623 15.6-26.97 26-21.46 10.4 5.51 15.6 64.322 26 49.006 10.4-15.315 15.6-112.123 26-125.583 10.4-13.46 15.6 48.267 26 58.283 10.4 10.017 15.6-3.258 26-8.2 10.4-4.942 15.6-.163 26-16.509s15.6-72.244 26-65.222c10.4 7.023 15.6 98.213 26 100.335s15.6-87.539 26-89.726c10.4-2.186 15.6 81.476 26 78.793 10.4-2.684 15.6-93.91 26-92.21 10.4 1.7 15.6 85.39 26 100.71 10.4 15.319 15.6 14.267 26-24.11 10.4-38.378 15.6-155.86 26-167.78 10.4-11.918 15.6 81.676 26 108.185 10.4 26.508 15.6 16.058 26 24.36s15.6 24.896 26 17.15c10.4-7.745 15.6-32.07 26-55.878 10.4-23.807 15.6-30.2 26-63.159 10.4-32.96 15.6-94.913 26-101.638 10.4-6.724 15.6 47.058 26 68.017 10.4 20.958 15.6 18.15 26 36.777 10.4 18.626 15.6 42.232 26 56.354s15.6 13.65 26 14.256c10.4.605 15.6 14.29 26-11.23s15.6-106.828 26-116.37c10.4-9.542 15.6 58.556 26 68.659 10.4 10.102 15.6 10.603 26-18.147s15.6-91.611 26-125.602c10.4-33.99 15.6-44.422 26-44.35 10.4.071 15.6 54.5 26 44.708 10.4-9.792 15.6-109.794 26-93.668 10.4 16.126 15.6 153.269 26 174.3 10.4 21.031 15.6-30.6 26-69.143 10.4-38.544 15.6-86.09 26-123.574 10.4-37.485 15.6-103.201 26-63.85 10.4 39.353 15.6 241.89 26 260.61 10.4 18.72 15.6-106.188 26-167.008 10.4-60.82 15.6-161.576 26-137.091 10.4 24.485 15.6 268.172 26 259.515 10.4-8.656 15.6-267.698 26-302.799s15.6 124.325 26 127.293c10.4 2.968 15.6-88.965 26-112.452 10.4-23.487 15.6-38.884 26-4.983 10.4 33.902 15.6 110.541 26 174.492 10.4 63.95 15.6 180.953 26 145.26 10.4-35.692 15.6-313.584 26-323.723 10.4-10.14 15.6 248.905 26 273.028 10.4 24.122 15.6-155.6 26-152.417 10.4 3.182 15.6 139.988 26 168.328 10.4 28.34 15.6-5.808 26-26.627s15.6 3.252 26-77.467c10.4-80.718 15.6-308.45 26-326.126 10.4-17.677 15.6 216.594 26 237.744 10.4 21.15 15.6-81.522 26-131.994 10.4-50.472 15.6-109.178 26-120.367 10.4-11.189 15.6-8.868 26 64.423 10.4 73.29 20.8 241.625 26 302.03L2000 1000H0Z" fill="#444cf71a"/><path d="M0 998.644c5.2-1.222 15.6-3.55 26-6.112 10.4-2.56 15.6-.972 26-6.693s15.6-15.29 26-21.912c10.4-6.623 15.6-9.939 26-11.2 10.4-1.263 15.6 9.777 26 4.89s15.6-25.91 26-29.327c10.4-3.415 15.6 8.686 26 12.248 10.4 3.561 15.6 12.38 26 5.562 10.4-6.817 15.6-30.815 26-39.65 10.4-8.834 15.6-7.788 26-4.52 10.4 3.266 15.6 23.4 26 20.855 10.4-2.544 15.6-23.723 26-33.576 10.4-9.853 15.6-9.189 26-15.688 10.4-6.5 15.6-3.445 26-16.808 10.4-13.362 15.6-40.589 26-50.005 10.4-9.416 15.6 2.429 26 2.925s15.6-4.025 26-.444c10.4 3.58 15.6 18.97 26 18.35 10.4-.623 15.6-26.97 26-21.46 10.4 5.51 15.6 64.322 26 49.006 10.4-15.315 15.6-112.123 26-125.583 10.4-13.46 15.6 48.267 26 58.283 10.4 10.017 15.6-3.258 26-8.2 10.4-4.942 15.6-.163 26-16.509s15.6-72.244 26-65.222c10.4 7.023 15.6 98.213 26 100.335s15.6-87.539 26-89.726c10.4-2.186 15.6 81.476 26 78.793 10.4-2.684 15.6-93.91 26-92.21 10.4 1.7 15.6 85.39 26 100.71 10.4 15.319 15.6 14.267 26-24.11 10.4-38.378 15.6-155.86 26-167.78 10.4-11.918 15.6 81.676 26 108.185 10.4 26.508 15.6 16.058 26 24.36s15.6 24.896 26 17.15c10.4-7.745 15.6-32.07 26-55.878 10.4-23.807 15.6-30.2 26-63.159 10.4-32.96 15.6-94.913 26-101.638 10.4-6.724 15.6 47.058 26 68.017 10.4 20.958 15.6 18.15 26 36.777 10.4 18.626 15.6 42.232 26 56.354s15.6 13.65 26 14.256c10.4.605 15.6 14.29 26-11.23s15.6-106.828 26-116.37c10.4-9.542 15.6 58.556 26 68.659 10.4 10.102 15.6 10.603 26-18.147s15.6-91.611 26-125.602c10.4-33.99 15.6-44.422 26-44.35 10.4.071 15.6 54.5 26 44.708 10.4-9.792 15.6-109.794 26-93.668 10.4 16.126 15.6 153.269 26 174.3 10.4 21.031 15.6-30.6 26-69.143 10.4-38.544 15.6-86.09 26-123.574 10.4-37.485 15.6-103.201 26-63.85 10.4 39.353 15.6 241.89 26 260.61 10.4 18.72 15.6-106.188 26-167.008 10.4-60.82 15.6-161.576 26-137.091 10.4 24.485 15.6 268.172 26 259.515 10.4-8.656 15.6-267.698 26-302.799s15.6 124.325 26 127.293c10.4 2.968 15.6-88.965 26-112.452 10.4-23.487 15.6-38.884 26-4.983 10.4 33.902 15.6 110.541 26 174.492 10.4 63.95 15.6 180.953 26 145.26 10.4-35.692 15.6-313.584 26-323.723 10.4-10.14 15.6 248.905 26 273.028 10.4 24.122 15.6-155.6 26-152.417 10.4 3.182 15.6 139.988 26 168.328 10.4 28.34 15.6-5.808 26-26.627s15.6 3.252 26-77.467c10.4-80.718 15.6-308.45 26-326.126 10.4-17.677 15.6 216.594 26 237.744 10.4 21.15 15.6-81.522 26-131.994 10.4-50.472 15.6-109.178 26-120.367 10.4-11.189 15.6-8.868 26 64.423 10.4 73.29 20.8 241.625 26 302.03" fill="none" stroke="#444cf7" stroke-width="4"/><g fill="#444cf7"><circle cy="998.644" r="8"/><circle cx="26" cy="992.532" r="8"/><circle cx="52" cy="985.839" r="8"/><circle cx="78" cy="963.927" r="8"/><circle cx="104" cy="952.726" r="8"/><circle cx="130" cy="957.617" r="8"/><circle cx="156" cy="928.29" r="8"/><circle cx="182" cy="940.538" r="8"/><circle cx="208" cy="946.1" r="8"/><circle cx="234" cy="906.451" r="8"/><circle cx="260" cy="901.929" r="8"/><circle cx="286" cy="922.785" r="8"/><circle cx="312" cy="889.209" r="8"/><circle cx="338" cy="873.521" r="8"/><circle cx="364" cy="856.713" r="8"/><circle cx="390" cy="806.708" r="8"/><circle cx="416" cy="809.633" r="8"/><circle cx="442" cy="809.189" r="8"/><circle cx="468" cy="827.538" r="8"/><circle cx="494" cy="806.079" r="8"/><circle cx="520" cy="855.085" r="8"/><circle cx="546" cy="729.502" r="8"/><circle cx="572" cy="787.785" r="8"/><circle cx="598" cy="779.585" r="8"/><circle cx="624" cy="763.076" r="8"/><circle cx="650" cy="697.854" r="8"/><circle cx="676" cy="798.189" r="8"/><circle cx="702" cy="708.463" r="8"/><circle cx="728" cy="787.256" r="8"/><circle cx="754" cy="695.046" r="8"/><circle cx="780" cy="795.755" r="8"/><circle cx="806" cy="771.646" r="8"/><circle cx="832" cy="603.867" r="8"/><circle cx="858" cy="712.051" r="8"/><circle cx="884" cy="736.411" r="8"/><circle cx="910" cy="753.561" r="8"/><circle cx="936" cy="697.683" r="8"/><circle cx="962" cy="634.524" r="8"/><circle cx="988" cy="532.886" r="8"/><circle cx="1014" cy="600.903" r="8"/><circle cx="1040" cy="637.68" r="8"/><circle cx="1066" cy="694.034" r="8"/><circle cx="1092" cy="708.29" r="8"/><circle cx="1118" cy="697.06" r="8"/><circle cx="1144" cy="580.69" r="8"/><circle cx="1170" cy="649.349" r="8"/><circle cx="1196" cy="631.202" r="8"/><circle cx="1222" cy="505.6" r="8"/><circle cx="1248" cy="461.25" r="8"/><circle cx="1274" cy="505.958" r="8"/><circle cx="1300" cy="412.29" r="8"/><circle cx="1326" cy="586.59" r="8"/><circle cx="1352" cy="517.447" r="8"/><circle cx="1378" cy="393.873" r="8"/><circle cx="1404" cy="330.024" r="8"/><circle cx="1430" cy="590.633" r="8"/><circle cx="1456" cy="423.625" r="8"/><circle cx="1482" cy="286.534" r="8"/><circle cx="1508" cy="546.049" r="8"/><circle cx="1534" cy="243.25" r="8"/><circle cx="1560" cy="370.543" r="8"/><circle cx="1586" cy="258.091" r="8"/><circle cx="1612" cy="253.108" r="8"/><circle cx="1638" cy="427.6" r="8"/><circle cx="1664" cy="572.861" r="8"/><circle cx="1690" cy="249.137" r="8"/><circle cx="1716" cy="522.165" r="8"/><circle cx="1742" cy="369.748" r="8"/><circle cx="1768" cy="538.076" r="8"/><circle cx="1794" cy="511.449" r="8"/><circle cx="1820" cy="433.982" r="8"/><circle cx="1846" cy="107.856" r="8"/><circle cx="1872" cy="345.6" r="8"/><circle cx="1898" cy="213.606" r="8"/><circle cx="1924" cy="93.239" r="8"/><circle cx="1950" cy="157.662" r="8"/><circle cx="1976" cy="459.693" r="8"/></g></svg>