<svg height="auto" viewBox="0 0 1000 1000" xmlns="http://www.w3.org/2000/svg"><path d="M0 1000h88.889V639.174q0-4-4-4H4q-4 0-4 4ZM111.111 1000H200V148.076q0-4-4-4h-80.889q-4 0-4 4ZM222.222 1000h88.89V794.607q0-4-4-4h-80.89q-4 0-4 4ZM333.333 1000h88.89V531.569q0-4-4-4h-80.89q-4 0-4 4ZM444.444 1000h88.89V639.297q0-4-4-4h-80.89q-4 0-4 4ZM555.556 1000h88.888V713.85q0-4-4-4h-80.888q-4 0-4 4ZM666.667 1000h88.889V143.473q0-4-4-4h-80.89q-4 0-4 4ZM777.778 1000h88.889V219.18q0-4-4-4h-80.89q-4 0-4 4ZM888.889 1000h88.889V460.565q0-4-4-4h-80.89q-4 0-4 4Z" fill="#444cf7"/></svg>