<svg height="auto" viewBox="0 0 1000 1000" xmlns="http://www.w3.org/2000/svg"><path d="M0 1000h88.889v-26.443q0-4-4-4H4q-4 0-4 4ZM111.111 1000H200v-58.805q0-4-4-4h-80.889q-4 0-4 4ZM222.222 1000h88.89V790.985q0-4-4-4h-80.89q-4 0-4 4ZM333.333 1000h88.89V687.584q0-4-4-4h-80.89q-4 0-4 4ZM444.444 1000h88.89V685.963q0-4-4-4h-80.89q-4 0-4 4ZM555.556 1000h88.888V436.507q0-4-4-4h-80.888q-4 0-4 4ZM666.667 1000h88.889V586.034q0-4-4-4h-80.89q-4 0-4 4ZM777.778 1000h88.889V324.21q0-4-4-4h-80.89q-4 0-4 4ZM888.889 1000h88.889V73.116q0-4-4-4h-80.89q-4 0-4 4Z" fill="#444cf7"/></svg>