<svg height="auto" viewBox="0 0 1250 1000" xmlns="http://www.w3.org/2000/svg"><path d="m0 254.787 28 208.368 28 202.17 28-101.177 28 14.727 28-239.4 28 387.287 28 12.539 28-612.255 28 148.013 28-85.756 28 560.185 28-208.182 28-80.83 28 50.902 28 53.56 28-120.224 28 130.199 28-419.853 28 639.613 28-418.364 28 313.648 28 98.428 28-56.046 28-288.29 28 216.032 28 101.678 28-463.89 28-148.634 28 568.01 28-489.71 28 20.436 28 491.072 28 19.967 28-543.686 28 289.068 28-31.368 28-18.217 28-187.396 28 254.602 28-384.063 28 355.246 28-362.39 28 596.687 28-382.2L1250 1000H0Z" fill="#f756451a"/><path d="m0 254.787 28 208.368 28 202.17 28-101.177 28 14.727 28-239.4 28 387.287 28 12.539 28-612.255 28 148.013 28-85.756 28 560.185 28-208.182 28-80.83 28 50.902 28 53.56 28-120.224 28 130.199 28-419.853 28 639.613 28-418.364 28 313.648 28 98.428 28-56.046 28-288.29 28 216.032 28 101.678 28-463.89 28-148.634 28 568.01 28-489.71 28 20.436 28 491.072 28 19.967 28-543.686 28 289.068 28-31.368 28-18.217 28-187.396 28 254.602 28-384.063 28 355.246 28-362.39 28 596.687 28-382.2" fill="none" stroke="#f75645" stroke-width="4"/></svg>