<svg height="auto" viewBox="0 0 1250 1000" xmlns="http://www.w3.org/2000/svg"><path d="M0 608.712c13.2 20.811 39.6 101.27 66 104.056 26.4 2.786 39.6-8.535 66-90.127s39.6-302.503 66-317.834c26.4-15.33 39.6 267.106 66 241.18 26.4-25.926 39.6-348.661 66-370.809 26.4-22.148 39.6 208.98 66 260.071 26.4 51.091 39.6-70.895 66-4.616 26.4 66.28 39.6 399.56 66 336.012s39.6-628.792 66-653.75c26.4-24.96 39.6 404.266 66 528.955 26.4 124.689 39.6 125.14 66 94.488 26.4-30.653 39.6-211.127 66-247.751 26.4-36.625 39.6 137.502 66 64.63 26.4-72.872 39.6-470.007 66-428.992 26.4 41.015 39.6 579.39 66 634.069 26.4 54.677 39.6-230.491 66-360.68 26.4-130.19 39.6-366.882 66-290.265 26.4 76.617 39.6 662.414 66 673.35 26.4 10.935 52.8-494.936 66-618.67L1250 1000H0Z" fill="#eb10f31a"/><path d="M0 608.712c13.2 20.811 39.6 101.27 66 104.056 26.4 2.786 39.6-8.535 66-90.127s39.6-302.503 66-317.834c26.4-15.33 39.6 267.106 66 241.18 26.4-25.926 39.6-348.661 66-370.809 26.4-22.148 39.6 208.98 66 260.071 26.4 51.091 39.6-70.895 66-4.616 26.4 66.28 39.6 399.56 66 336.012s39.6-628.792 66-653.75c26.4-24.96 39.6 404.266 66 528.955 26.4 124.689 39.6 125.14 66 94.488 26.4-30.653 39.6-211.127 66-247.751 26.4-36.625 39.6 137.502 66 64.63 26.4-72.872 39.6-470.007 66-428.992 26.4 41.015 39.6 579.39 66 634.069 26.4 54.677 39.6-230.491 66-360.68 26.4-130.19 39.6-366.882 66-290.265 26.4 76.617 39.6 662.414 66 673.35 26.4 10.935 52.8-494.936 66-618.67" fill="none" stroke="#eb10f3" stroke-width="4"/></svg>