<svg width="86" height="35" viewBox="0 0 86 35" fill="none" xmlns="http://www.w3.org/2000/svg">
<path d="M3.8 5.8C3.8 4.44 3.61333 3.44 3.24 2.8C2.86667 2.13333 2.12 1.8 1 1.8H0.6V0.599999H5.4C6.36 0.599999 7.09333 0.759999 7.6 1.08C8.10667 1.4 8.46667 1.93333 8.68 2.68C8.89333 3.4 9 4.44 9 5.8V25.2H22.8V27H3.8V5.8ZM33.2666 27.4C31.3199 27.4 29.6132 26.9733 28.1466 26.12C26.7066 25.24 25.5999 24.0667 24.8266 22.6C24.0532 21.1067 23.6666 19.44 23.6666 17.6C23.6666 15.76 24.0532 14.1067 24.8266 12.64C25.5999 11.1467 26.7066 9.97333 28.1466 9.12C29.6132 8.24 31.3199 7.8 33.2666 7.8C35.2132 7.8 36.9066 8.24 38.3466 9.12C39.8132 9.97333 40.9332 11.1467 41.7066 12.64C42.4799 14.1067 42.8666 15.76 42.8666 17.6C42.8666 19.44 42.4799 21.1067 41.7066 22.6C40.9332 24.0667 39.8132 25.24 38.3466 26.12C36.9066 26.9733 35.2132 27.4 33.2666 27.4ZM33.2666 25.6C34.6266 25.6 35.6666 24.8667 36.3866 23.4C37.1066 21.9333 37.4666 20 37.4666 17.6C37.4666 15.2 37.1066 13.2667 36.3866 11.8C35.6666 10.3333 34.6266 9.6 33.2666 9.6C31.9066 9.6 30.8666 10.3333 30.1466 11.8C29.4266 13.2667 29.0666 15.2 29.0666 17.6C29.0666 20 29.4266 21.9333 30.1466 23.4C30.8666 24.8667 31.9066 25.6 33.2666 25.6ZM54.6569 35C51.6169 35 49.2169 34.5067 47.4569 33.52C45.7235 32.56 44.8569 30.9867 44.8569 28.8C44.8569 27.4667 45.3902 26.36 46.4569 25.48C47.5235 24.6 48.7902 23.9733 50.2569 23.6C49.0569 23.2267 48.4569 22.4933 48.4569 21.4C48.4569 20.4933 48.9902 19.8267 50.0569 19.4C48.9102 19 47.9502 18.3067 47.1769 17.32C46.4302 16.3333 46.0569 15.24 46.0569 14.04C46.0569 11.8533 46.8302 10.2667 48.3769 9.28C49.9502 8.29333 52.0435 7.8 54.6569 7.8H63.0569V8.88L59.4569 9.36C60.5769 9.78667 61.4835 10.44 62.1769 11.32C62.8969 12.2 63.2569 13.1067 63.2569 14.04C63.2569 16.2267 62.5102 17.8 61.0169 18.76C59.5502 19.72 57.4302 20.2 54.6569 20.2C53.2702 20.2 52.2569 20.28 51.6169 20.44C50.9769 20.5733 50.6569 20.8933 50.6569 21.4C50.6569 21.8267 50.9769 22.1067 51.6169 22.24C52.2569 22.3733 53.2702 22.4533 54.6569 22.48C57.5369 22.5333 59.8835 23.1067 61.6969 24.2C63.5369 25.2667 64.4569 26.8 64.4569 28.8C64.4569 30.9867 63.5769 32.56 61.8169 33.52C60.0835 34.5067 57.6969 35 54.6569 35ZM54.6569 18.6C56.7902 18.6 57.8569 17.08 57.8569 14.04C57.8569 12.5467 57.5635 11.4 56.9769 10.6C56.3902 9.8 55.6169 9.4 54.6569 9.4C53.6702 9.4 52.8835 9.78667 52.2969 10.56C51.7369 11.3333 51.4569 12.4933 51.4569 14.04C51.4569 17.08 52.5235 18.6 54.6569 18.6ZM54.6569 33.2C56.0435 33.2 57.1235 32.8267 57.8969 32.08C58.6702 31.36 59.0569 30.2667 59.0569 28.8C59.0569 27.6267 58.6835 26.6533 57.9369 25.88C57.2169 25.08 56.2302 24.56 54.9769 24.32L53.0969 24.12C52.1635 24.52 51.4569 25.0933 50.9769 25.84C50.4969 26.5867 50.2569 27.5733 50.2569 28.8C50.2569 30.2667 50.6435 31.36 51.4169 32.08C52.1902 32.8267 53.2702 33.2 54.6569 33.2ZM76.2744 27.4C74.3277 27.4 72.621 26.9733 71.1544 26.12C69.7144 25.24 68.6077 24.0667 67.8344 22.6C67.061 21.1067 66.6744 19.44 66.6744 17.6C66.6744 15.76 67.061 14.1067 67.8344 12.64C68.6077 11.1467 69.7144 9.97333 71.1544 9.12C72.621 8.24 74.3277 7.8 76.2744 7.8C78.221 7.8 79.9144 8.24 81.3544 9.12C82.821 9.97333 83.941 11.1467 84.7144 12.64C85.4877 14.1067 85.8744 15.76 85.8744 17.6C85.8744 19.44 85.4877 21.1067 84.7144 22.6C83.941 24.0667 82.821 25.24 81.3544 26.12C79.9144 26.9733 78.221 27.4 76.2744 27.4ZM76.2744 25.6C77.6344 25.6 78.6744 24.8667 79.3944 23.4C80.1144 21.9333 80.4744 20 80.4744 17.6C80.4744 15.2 80.1144 13.2667 79.3944 11.8C78.6744 10.3333 77.6344 9.6 76.2744 9.6C74.9144 9.6 73.8744 10.3333 73.1544 11.8C72.4344 13.2667 72.0744 15.2 72.0744 17.6C72.0744 20 72.4344 21.9333 73.1544 23.4C73.8744 24.8667 74.9144 25.6 76.2744 25.6Z" fill="white"/>
</svg>
